<?xml version="1.0"?>
<svg xmlns="http://www.w3.org/2000/svg" xmlns:xlink="http://www.w3.org/1999/xlink" xmlns:svgjs="http://svgjs.com/svgjs" version="1.1" width="512" height="512" x="0" y="0" viewBox="0 0 490.309 490.309" style="enable-background:new 0 0 512 512" xml:space="preserve" class=""><g>
<g xmlns="http://www.w3.org/2000/svg">
	<g>
		<path d="M390.823,217.418l17.944,17.944c3.124,3.123,8.188,3.123,11.312,0l67.888-67.888c3.123-3.124,3.123-8.188,0-11.312    l-17.944-17.936c-4.49-4.516-10.6-7.048-16.968-7.032h-24l-3.32-3.312l11.32-11.312c3.126-3.122,3.129-8.188,0.006-11.314    c-0.002-0.002-0.004-0.004-0.006-0.006l-44.352-44.336c-8.924-8.919-20.033-15.338-32.216-18.616l-0.864-0.24    c-24.977-6.693-51.16-7.547-76.52-2.496l-73.672,12.544c-4.359,0.724-7.305,4.843-6.582,9.202c0.56,3.376,3.206,6.021,6.582,6.582    l67.416,11.2c15.347,3.057,29.597,10.164,41.272,20.584l-28.152,28.208c-3.123,3.124-3.123,8.188,0,11.312l5.6,5.6l-60.984,61.056    l-15.84-15.84l22.624-22.64c3.118-3.123,3.118-8.181,0-11.304l-10.96-10.96c-1.472-1.473-3.461-2.314-5.544-2.344l-16.984-0.232    l-2.784-9.936c-0.377-1.317-1.081-2.517-2.048-3.488L95.623,21.642C73.737-0.228,38.265-0.216,16.395,21.67    c-21.87,21.886-21.858,57.357,0.028,79.228l106.96,106.96c0.942,0.944,2.106,1.637,3.384,2.016l10.632,3.16l0.6,17.6    c0.071,2.027,0.908,3.951,2.344,5.384l10.56,10.56c3.124,3.123,8.188,3.123,11.312,0l22.568-22.592l15.824,15.816L7.759,432.746    c-9.387,9.264-9.486,24.384-0.221,33.771c0.073,0.074,0.147,0.148,0.221,0.221l11.28,11.288c9.37,9.376,24.566,9.38,33.941,0.011    c0.004-0.004,0.007-0.007,0.011-0.011l192.952-192.912l144.04,144c-0.096,1.359,0.16,2.72,0.744,3.952l11.296,22.672    c0.624,1.243,1.562,2.302,2.72,3.072l33.944,22.632c3.172,2.112,7.393,1.693,10.088-1l22.632-22.632    c2.698-2.691,3.123-6.913,1.016-10.088l-22.632-33.944c-0.771-1.155-1.83-2.09-3.072-2.712l-16.76-8.384    c-0.338-1.252-0.984-2.399-1.88-3.336L279.895,251.162l61.024-61.016l5.6,5.6c3.174,3.001,8.138,3.001,11.312,0l22.624-22.632    l3.32,3.32v24C383.759,206.81,386.297,212.927,390.823,217.418z M156.583,229.642l-2.672-2.672l-0.688-20.24    c-0.116-3.44-2.42-6.421-5.72-7.4l-14.216-4.216L27.775,89.594c-15.634-15.625-15.641-40.966-0.016-56.6    c15.625-15.634,40.966-15.641,56.6-0.016l105.888,105.96l3.832,13.664c0.957,3.414,4.047,5.791,7.592,5.84l19.712,0.272    l3.016,3.016L156.583,229.642z M41.647,466.706c-3.12,3.128-8.186,3.135-11.314,0.014c-0.005-0.005-0.01-0.01-0.014-0.014    l-11.32-11.312c-3.119-3.041-3.183-8.035-0.142-11.154c0.047-0.048,0.094-0.095,0.142-0.142l192.944-192.984l22.68,22.688    L41.647,466.706z M437.663,424.418l17.8,26.72l-13.352,13.352l-26.704-17.808l-7.784-15.568l14.472-14.472L437.663,424.418z     M411.103,404.994l-11.328,11.328l-203.64-203.64l11.328-11.328L411.103,404.994z M268.583,239.85l-22.688-22.688l61.016-61.008    l22.696,22.672L268.583,239.85z M380.471,153.818c-2.122,0-4.156,0.844-5.656,2.344l-22.624,22.632l-5.528-5.528    c-0.048-0.048-0.064-0.12-0.112-0.168l-39.616-39.56l28.288-28.288c3.123-3.124,3.123-8.188,0-11.312l-2.08-2.072    c-14.571-14.591-33.159-24.509-53.392-28.488l-20.8-3.472l27.072-4.616c23.01-4.603,46.771-3.845,69.44,2.216l0.888,0.24    c9.478,2.551,18.12,7.544,25.064,14.48l38.688,38.68l-11.32,11.32c-3.123,3.124-3.123,8.188,0,11.312l11.296,11.304    c1.5,1.5,3.534,2.344,5.656,2.344h27.312c2.123-0.006,4.16,0.838,5.656,2.344l12.28,12.28l-56.568,56.576l-12.288-12.288    c-1.497-1.501-2.338-3.536-2.336-5.656V173.13c0-2.122-0.844-4.156-2.344-5.656l-11.32-11.312    C384.627,154.662,382.592,153.819,380.471,153.818z" fill="#ffffff" data-original="#000000" style="" class=""/>
	</g>
</g>
<g xmlns="http://www.w3.org/2000/svg">
</g>
<g xmlns="http://www.w3.org/2000/svg">
</g>
<g xmlns="http://www.w3.org/2000/svg">
</g>
<g xmlns="http://www.w3.org/2000/svg">
</g>
<g xmlns="http://www.w3.org/2000/svg">
</g>
<g xmlns="http://www.w3.org/2000/svg">
</g>
<g xmlns="http://www.w3.org/2000/svg">
</g>
<g xmlns="http://www.w3.org/2000/svg">
</g>
<g xmlns="http://www.w3.org/2000/svg">
</g>
<g xmlns="http://www.w3.org/2000/svg">
</g>
<g xmlns="http://www.w3.org/2000/svg">
</g>
<g xmlns="http://www.w3.org/2000/svg">
</g>
<g xmlns="http://www.w3.org/2000/svg">
</g>
<g xmlns="http://www.w3.org/2000/svg">
</g>
<g xmlns="http://www.w3.org/2000/svg">
</g>
</g></svg>
